# xmcd
#
# Track frame offsets:
#       150
#       6591
#       12123
#       16011
#       18920
#       22243
#       27368
#       32010
#       38747
#       42869
#       46704
#       48279
#       49540
#       55032
#       59078
#       62580
#       65146
#       67741
#       70135
#       71839
#       78184
#       82687
#       89665
#       94767
#       108561
#       112302
#       115054
#       118563
#       124723
#       131604
#       136623
#       142096
#       145317
#       151710
#       155197
#       160746
#       166662
#       171911
#       177770
#       186423
#       203043
#       207128
#       211087
#       216912
#       224495
#       239665
#       244302
#       249319
#       258919
#       269910
#       280521
#       288951
#       297093
#       304481
#       312506
#       322425
#
# Disc length: 4397 seconds
#
# Revision: 0
# Processed by: cddbd v1.5.2PL0 Copyright (c) Steve Scherf et al.
# Submitted via: WaveLab 4.01
#
DISCID=3e112b38
DTITLE=Eike Wernhard - tast sinn 
DYEAR=2013
DGENRE=Klavierschule
TTITLE0=Titel 01
TTITLE1=Titel 02
TTITLE2=Titel 03
TTITLE3=Titel 04
TTITLE4=Titel 05
TTITLE5=Titel 06
TTITLE6=Titel 07
TTITLE7=Titel 08
TTITLE8=Titel 09
TTITLE9=Titel 10
TTITLE10=Titel 11
TTITLE11=Titel 12
TTITLE12=Titel 13
TTITLE13=Titel 14
TTITLE14=Titel 15
TTITLE15=Titel 16
TTITLE16=Titel 17
TTITLE17=Titel 18
TTITLE18=Titel 19
TTITLE19=Titel 20
TTITLE20=Titel 21
TTITLE21=Titel 22
TTITLE22=Titel 23
TTITLE23=Titel 24
TTITLE24=Titel 25
TTITLE25=Titel 26
TTITLE26=Titel 27
TTITLE27=Titel 28
TTITLE28=Titel 29
TTITLE29=Titel 30
TTITLE30=Titel 31
TTITLE31=Titel 32
TTITLE32=Titel 33
TTITLE33=Titel 34
TTITLE34=Titel 35
TTITLE35=Titel 36
TTITLE36=Titel 37
TTITLE37=Titel 38
TTITLE38=Titel 39
TTITLE39=Titel 40
TTITLE40=Titel 41
TTITLE41=Titel 42
TTITLE42=Titel 43
TTITLE43=Titel 44
TTITLE44=Titel 45
TTITLE45=Titel 46
TTITLE46=Titel 47
TTITLE47=Titel 48
TTITLE48=Titel 49
TTITLE49=Titel 50
TTITLE50=Titel 51
TTITLE51=Titel 52
TTITLE52=Titel 53
TTITLE53=Titel 54
TTITLE54=Titel 55
TTITLE55=Titel 56
EXTD=
EXTT0=
EXTT1=
EXTT2=
EXTT3=
EXTT4=
EXTT5=
EXTT6=
EXTT7=
EXTT8=
EXTT9=
EXTT10=
EXTT11=
EXTT12=
EXTT13=
EXTT14=
EXTT15=
EXTT16=
EXTT17=
EXTT18=
EXTT19=
EXTT20=
EXTT21=
EXTT22=
EXTT23=
EXTT24=
EXTT25=
EXTT26=
EXTT27=
EXTT28=
EXTT29=
EXTT30=
EXTT31=
EXTT32=
EXTT33=
EXTT34=
EXTT35=
EXTT36=
EXTT37=
EXTT38=
EXTT39=
EXTT40=
EXTT41=
EXTT42=
EXTT43=
EXTT44=
EXTT45=
EXTT46=
EXTT47=
EXTT48=
EXTT49=
EXTT50=
EXTT51=
EXTT52=
EXTT53=
EXTT54=
EXTT55=
PLAYORDER=
